<svg width="746" height="631" viewBox="0 0 746 631" fill="none" xmlns="http://www.w3.org/2000/svg">
<path d="M112.916 231.899C77.6166 240.899 46.7759 262.649 26.188 293.063C5.60005 323.478 -3.318 360.463 1.10935 397.07C5.53671 433.677 23.0047 467.385 50.2315 491.863C77.4583 516.341 112.57 529.902 148.969 530H559.515C585.866 529.982 611.915 524.309 635.946 513.356C659.978 502.402 681.447 486.416 698.941 466.45C716.436 446.483 729.558 422.989 737.445 397.514C745.332 372.038 747.805 345.159 744.7 318.646C741.596 292.133 732.985 266.586 719.434 243.687C705.883 220.789 687.699 201.058 666.079 185.793C644.46 170.529 619.895 160.076 594.001 155.124C568.107 150.172 541.472 150.832 515.848 157.062L466.209 170.751" fill="white"/>
<path d="M515.848 157.062C503.092 105.881 471.605 61.5293 427.772 32.998C383.939 4.46666 331.038 -6.10975 279.794 3.41274C228.549 12.9352 182.796 41.8441 151.808 84.2792C120.82 126.714 106.917 179.5 112.916 231.937C112.916 231.937 118.626 265.29 130.308 284.198" fill="white"/>
<circle cx="534.608" cy="475.563" r="146.728" fill="#0A101A"/>
<g clip-path="url(#clip0_10_32)">
<path d="M460.833 432.101L535.059 475.823Z" fill="#8BFFFF"/>
<path d="M460.833 432.101L535.059 475.823" stroke="#8BFFFF" stroke-width="14" stroke-linecap="round" stroke-linejoin="round"/>
<path d="M463.652 408.465L470.09 437.553L441.781 446.167L435.34 417.084L463.652 408.465Z" fill="#8BFFFF" stroke="#8BFFFF" stroke-width="14" stroke-linecap="round" stroke-linejoin="round"/>
<path d="M494.343 426.544L500.782 455.632L472.472 464.246" stroke="#8BFFFF" stroke-width="14" stroke-linecap="round" stroke-linejoin="round"/>
<path d="M528.621 446.735L535.059 475.823L506.75 484.436" stroke="#8BFFFF" stroke-width="14" stroke-linecap="round" stroke-linejoin="round"/>
<path d="M459.825 519.676L535.059 475.823Z" fill="#8BFFFF"/>
<path d="M459.825 519.676L535.059 475.823" stroke="#8BFFFF" stroke-width="14" stroke-linecap="round" stroke-linejoin="round"/>
<path d="M441.098 505.633L469.211 514.201L462.101 543.301L433.988 534.733L441.098 505.633Z" fill="#8BFFFF" stroke="#8BFFFF" stroke-width="14" stroke-linecap="round" stroke-linejoin="round"/>
<path d="M472.204 487.504L500.317 496.072L493.211 525.167" stroke="#8BFFFF" stroke-width="14" stroke-linecap="round" stroke-linejoin="round"/>
<path d="M506.946 467.255L535.059 475.823L527.952 504.918" stroke="#8BFFFF" stroke-width="14" stroke-linecap="round" stroke-linejoin="round"/>
<path d="M534.051 563.399L535.059 475.823Z" fill="#8BFFFF"/>
<path d="M534.051 563.399L535.059 475.823" stroke="#8BFFFF" stroke-width="14" stroke-linecap="round" stroke-linejoin="round"/>
<path d="M512.505 572.991L534.18 552.471L555.383 572.952L533.707 593.473L512.505 572.991Z" fill="#8BFFFF" stroke="#8BFFFF" stroke-width="14" stroke-linecap="round" stroke-linejoin="round"/>
<path d="M512.923 536.779L534.595 516.263L555.797 536.745" stroke="#8BFFFF" stroke-width="14" stroke-linecap="round" stroke-linejoin="round"/>
<path d="M513.387 496.338L535.059 475.823L556.262 496.304" stroke="#8BFFFF" stroke-width="14" stroke-linecap="round" stroke-linejoin="round"/>
<path d="M609.285 519.545L535.059 475.823Z" fill="#8BFFFF"/>
<path d="M609.285 519.545L535.059 475.823" stroke="#8BFFFF" stroke-width="14" stroke-linecap="round" stroke-linejoin="round"/>
<path d="M606.469 543.176L600.028 514.092L628.34 505.474L634.779 534.562L606.469 543.176Z" fill="#8BFFFF" stroke="#8BFFFF" stroke-width="14" stroke-linecap="round" stroke-linejoin="round"/>
<path d="M575.778 525.097L569.337 496.014L597.649 487.395" stroke="#8BFFFF" stroke-width="14" stroke-linecap="round" stroke-linejoin="round"/>
<path d="M541.501 504.906L535.059 475.823L563.372 467.204" stroke="#8BFFFF" stroke-width="14" stroke-linecap="round" stroke-linejoin="round"/>
<path d="M610.293 431.97L535.059 475.823Z" fill="#8BFFFF"/>
<path d="M610.293 431.97L535.059 475.823" stroke="#8BFFFF" stroke-width="14" stroke-linecap="round" stroke-linejoin="round"/>
<path d="M629.024 446.007L600.91 437.44L608.02 408.34L636.134 416.907L629.024 446.007Z" fill="#8BFFFF" stroke="#8BFFFF" stroke-width="14" stroke-linecap="round" stroke-linejoin="round"/>
<path d="M597.915 464.142L569.801 455.574L576.911 426.474" stroke="#8BFFFF" stroke-width="14" stroke-linecap="round" stroke-linejoin="round"/>
<path d="M563.173 484.391L535.059 475.823L542.169 446.723" stroke="#8BFFFF" stroke-width="14" stroke-linecap="round" stroke-linejoin="round"/>
<path d="M536.068 388.247L535.059 475.823Z" fill="#8BFFFF"/>
<path d="M536.068 388.247L535.059 475.823" stroke="#8BFFFF" stroke-width="14" stroke-linecap="round" stroke-linejoin="round"/>
<path d="M557.616 378.65L535.941 399.17L514.739 378.689L536.414 358.168L557.616 378.65Z" fill="#8BFFFF" stroke="#8BFFFF" stroke-width="14" stroke-linecap="round" stroke-linejoin="round"/>
<path d="M557.199 414.862L535.524 435.383L514.321 414.901" stroke="#8BFFFF" stroke-width="14" stroke-linecap="round" stroke-linejoin="round"/>
<path d="M556.734 455.302L535.059 475.823L513.857 455.342" stroke="#8BFFFF" stroke-width="14" stroke-linecap="round" stroke-linejoin="round"/>
</g>
<defs>
<clipPath id="clip0_10_32">
<rect width="216.027" height="243.158" fill="white" transform="matrix(0.501785 -0.864992 0.86163 0.507538 376.105 507.546)"/>
</clipPath>
</defs>
</svg>
