<svg width="771" height="765" viewBox="0 0 771 765" fill="none" xmlns="http://www.w3.org/2000/svg">
<rect x="71.1974" y="130.402" width="322.683" height="253.582" rx="26" transform="rotate(-23.8358 71.1974 130.402)" fill="#2E2C4B"/>
<ellipse cx="302.555" cy="271.108" rx="293.474" ry="80.8446" transform="rotate(-21.7213 302.555 271.108)" fill="#2E2C4B"/>
<circle cx="390.278" cy="502.801" r="261.869" fill="white"/>
<path d="M722.385 505.432C732.119 506.898 732.772 520.686 723.22 523.065L469.5 586.252C446.93 591.872 424.833 575.522 423.61 552.295L421.117 504.996C419.885 481.609 440.417 462.975 463.575 466.462L722.385 505.432Z" fill="#F19100"/>
<circle cx="341.087" cy="441.072" r="39.0634" fill="#090909"/>
<circle cx="498.305" cy="387.058" r="39.0634" fill="#090909"/>
<rect x="82.9731" y="315.706" width="470.487" height="87.9989" rx="43.9995" transform="rotate(-22.049 82.9731 315.706)" fill="#2E2C4B"/>
</svg>
