<svg width="696" height="679" viewBox="0 0 696 679" fill="none" xmlns="http://www.w3.org/2000/svg">
<circle cx="346.562" cy="338.64" r="320.817" fill="#0A101A"/>
<g clip-path="url(#clip0_10_3)">
<path d="M185.256 243.611L347.548 339.208Z" fill="#8BFFFF"/>
<path d="M185.256 243.611L347.548 339.208" stroke="#8BFFFF" stroke-width="25" stroke-linecap="round" stroke-linejoin="round"/>
<path d="M191.419 191.932L205.496 255.533L143.598 274.366L129.514 210.776L191.419 191.932Z" fill="#8BFFFF" stroke="#8BFFFF" stroke-width="25" stroke-linecap="round" stroke-linejoin="round"/>
<path d="M258.525 231.46L272.602 295.061L210.704 313.894" stroke="#8BFFFF" stroke-width="25" stroke-linecap="round" stroke-linejoin="round"/>
<path d="M333.471 275.607L347.548 339.208L285.651 358.041" stroke="#8BFFFF" stroke-width="25" stroke-linecap="round" stroke-linejoin="round"/>
<path d="M183.051 435.092L347.548 339.208Z" fill="#8BFFFF"/>
<path d="M183.051 435.092L347.548 339.208" stroke="#8BFFFF" stroke-width="25" stroke-linecap="round" stroke-linejoin="round"/>
<path d="M142.105 404.387L203.574 423.121L188.028 486.747L126.559 468.013L142.105 404.387Z" fill="#8BFFFF" stroke="#8BFFFF" stroke-width="25" stroke-linecap="round" stroke-linejoin="round"/>
<path d="M210.117 364.749L271.586 383.482L256.047 447.097" stroke="#8BFFFF" stroke-width="25" stroke-linecap="round" stroke-linejoin="round"/>
<path d="M286.079 320.474L347.548 339.208L332.009 402.823" stroke="#8BFFFF" stroke-width="25" stroke-linecap="round" stroke-linejoin="round"/>
<path d="M345.344 530.689L347.548 339.208Z" fill="#8BFFFF"/>
<path d="M345.344 530.689L347.548 339.208" stroke="#8BFFFF" stroke-width="25" stroke-linecap="round" stroke-linejoin="round"/>
<path d="M298.234 551.663L345.626 506.796L391.985 551.578L344.593 596.445L298.234 551.663Z" fill="#8BFFFF" stroke="#8BFFFF" stroke-width="25" stroke-linecap="round" stroke-linejoin="round"/>
<path d="M299.147 472.485L346.533 427.629L392.891 472.411" stroke="#8BFFFF" stroke-width="25" stroke-linecap="round" stroke-linejoin="round"/>
<path d="M300.163 384.064L347.548 339.208L393.907 383.989" stroke="#8BFFFF" stroke-width="25" stroke-linecap="round" stroke-linejoin="round"/>
<path d="M509.84 434.805L347.548 339.208Z" fill="#8BFFFF"/>
<path d="M509.84 434.805L347.548 339.208" stroke="#8BFFFF" stroke-width="25" stroke-linecap="round" stroke-linejoin="round"/>
<path d="M503.685 486.472L489.601 422.883L551.505 404.038L565.582 467.639L503.685 486.472Z" fill="#8BFFFF" stroke="#8BFFFF" stroke-width="25" stroke-linecap="round" stroke-linejoin="round"/>
<path d="M436.579 446.944L422.495 383.354L484.399 364.51" stroke="#8BFFFF" stroke-width="25" stroke-linecap="round" stroke-linejoin="round"/>
<path d="M361.632 402.797L347.548 339.208L409.452 320.363" stroke="#8BFFFF" stroke-width="25" stroke-linecap="round" stroke-linejoin="round"/>
<path d="M512.045 243.324L347.548 339.208Z" fill="#8BFFFF"/>
<path d="M512.045 243.324L347.548 339.208" stroke="#8BFFFF" stroke-width="25" stroke-linecap="round" stroke-linejoin="round"/>
<path d="M552.999 274.017L491.529 255.283L507.075 191.657L568.544 210.391L552.999 274.017Z" fill="#8BFFFF" stroke="#8BFFFF" stroke-width="25" stroke-linecap="round" stroke-linejoin="round"/>
<path d="M484.979 313.666L423.51 294.933L439.056 231.307" stroke="#8BFFFF" stroke-width="25" stroke-linecap="round" stroke-linejoin="round"/>
<path d="M409.018 357.941L347.548 339.208L363.094 275.581" stroke="#8BFFFF" stroke-width="25" stroke-linecap="round" stroke-linejoin="round"/>
<path d="M349.753 147.726L347.548 339.208Z" fill="#8BFFFF"/>
<path d="M349.753 147.726L347.548 339.208" stroke="#8BFFFF" stroke-width="25" stroke-linecap="round" stroke-linejoin="round"/>
<path d="M396.869 126.741L349.477 171.608L303.119 126.827L350.51 81.9591L396.869 126.741Z" fill="#8BFFFF" stroke="#8BFFFF" stroke-width="25" stroke-linecap="round" stroke-linejoin="round"/>
<path d="M395.956 205.919L348.564 250.786L302.205 206.005" stroke="#8BFFFF" stroke-width="25" stroke-linecap="round" stroke-linejoin="round"/>
<path d="M394.94 294.34L347.548 339.208L301.19 294.426" stroke="#8BFFFF" stroke-width="25" stroke-linecap="round" stroke-linejoin="round"/>
</g>
<defs>
<clipPath id="clip0_10_3">
<rect width="472.337" height="531.657" fill="white" transform="matrix(0.501785 -0.864992 0.86163 0.507538 0 408.568)"/>
</clipPath>
</defs>
</svg>
