<svg id="Layer_1" data-name="Layer 1" xmlns="http://www.w3.org/2000/svg" viewBox="0 0 362.95 416"><defs><style>.cls-1{fill:#fff;}.cls-1,.cls-2,.cls-3{stroke:#8bffff;stroke-linecap:round;stroke-linejoin:round;stroke-width:20px;}.cls-2{fill:#8bffff;}.cls-3{fill:none;}</style></defs><path class="cls-1" d="M252,104.62V252" transform="translate(-70.53 -44)"/><polygon class="cls-2" points="218.09 44.5 181.47 79 144.86 44.5 181.47 10 218.09 44.5"/><polyline class="cls-3" points="218.09 105.44 181.47 139.94 144.86 105.44"/><polyline class="cls-3" points="218.09 173.5 181.47 208 144.86 173.5"/><path class="cls-1" d="M124.36,178.31,252,252" transform="translate(-70.53 -44)"/><polygon class="cls-2" points="58.19 94.54 69.76 143.5 21.57 157.96 10 109 58.19 94.54"/><polyline class="cls-3" points="110.96 125.01 122.53 173.97 74.35 188.43"/><polyline class="cls-3" points="169.9 159.04 181.47 208 133.29 222.46"/><path class="cls-1" d="M124.36,325.69,252,252" transform="translate(-70.53 -44)"/><polygon class="cls-2" points="21.57 258.04 69.76 272.5 58.19 321.46 10 307 21.57 258.04"/><polyline class="cls-3" points="74.35 227.57 122.53 242.03 110.96 290.99"/><polyline class="cls-3" points="133.29 193.54 181.47 208 169.9 256.96"/><path class="cls-1" d="M252,399.38V252" transform="translate(-70.53 -44)"/><polygon class="cls-2" points="144.86 371.5 181.47 337 218.09 371.5 181.47 406 144.86 371.5"/><polyline class="cls-3" points="144.86 310.56 181.47 276.06 218.09 310.56"/><polyline class="cls-3" points="144.86 242.5 181.47 208 218.09 242.5"/><path class="cls-1" d="M379.64,325.69,252,252" transform="translate(-70.53 -44)"/><polygon class="cls-2" points="304.76 321.46 293.19 272.5 341.38 258.04 352.95 307 304.76 321.46"/><polyline class="cls-3" points="251.98 290.99 240.41 242.03 288.6 227.57"/><polyline class="cls-3" points="193.04 256.96 181.47 208 229.66 193.54"/><path class="cls-1" d="M379.64,178.31,252,252" transform="translate(-70.53 -44)"/><polygon class="cls-2" points="341.38 157.96 293.19 143.5 304.76 94.54 352.95 109 341.38 157.96"/><polyline class="cls-3" points="288.6 188.43 240.41 173.97 251.98 125.01"/><polyline class="cls-3" points="229.66 222.46 181.47 208 193.04 159.04"/></svg>