<svg id="visual" viewBox="0 0 1920 1080" width="1920" height="1080" xmlns="http://www.w3.org/2000/svg" xmlns:xlink="http://www.w3.org/1999/xlink" version="1.1"><rect x="0" y="0" width="1920" height="1080" fill="#001220"></rect><path d="M0 833L45.7 842.8C91.3 852.7 182.7 872.3 274.2 868.8C365.7 865.3 457.3 838.7 548.8 824.8C640.3 811 731.7 810 823 815.8C914.3 821.7 1005.7 834.3 1097 847.5C1188.3 860.7 1279.7 874.3 1371.2 885C1462.7 895.7 1554.3 903.3 1645.8 896.5C1737.3 889.7 1828.7 868.3 1874.3 857.7L1920 847L1920 1081L1874.3 1081C1828.7 1081 1737.3 1081 1645.8 1081C1554.3 1081 1462.7 1081 1371.2 1081C1279.7 1081 1188.3 1081 1097 1081C1005.7 1081 914.3 1081 823 1081C731.7 1081 640.3 1081 548.8 1081C457.3 1081 365.7 1081 274.2 1081C182.7 1081 91.3 1081 45.7 1081L0 1081Z" fill="#8bffff"></path><path d="M0 916L45.7 906.2C91.3 896.3 182.7 876.7 274.2 874.2C365.7 871.7 457.3 886.3 548.8 898.7C640.3 911 731.7 921 823 920.7C914.3 920.3 1005.7 909.7 1097 908.8C1188.3 908 1279.7 917 1371.2 921.5C1462.7 926 1554.3 926 1645.8 917C1737.3 908 1828.7 890 1874.3 881L1920 872L1920 1081L1874.3 1081C1828.7 1081 1737.3 1081 1645.8 1081C1554.3 1081 1462.7 1081 1371.2 1081C1279.7 1081 1188.3 1081 1097 1081C1005.7 1081 914.3 1081 823 1081C731.7 1081 640.3 1081 548.8 1081C457.3 1081 365.7 1081 274.2 1081C182.7 1081 91.3 1081 45.7 1081L0 1081Z" fill="#61edff"></path><path d="M0 911L45.7 913.7C91.3 916.3 182.7 921.7 274.2 922.3C365.7 923 457.3 919 548.8 918C640.3 917 731.7 919 823 927.8C914.3 936.7 1005.7 952.3 1097 951.2C1188.3 950 1279.7 932 1371.2 921.8C1462.7 911.7 1554.3 909.3 1645.8 915C1737.3 920.7 1828.7 934.3 1874.3 941.2L1920 948L1920 1081L1874.3 1081C1828.7 1081 1737.3 1081 1645.8 1081C1554.3 1081 1462.7 1081 1371.2 1081C1279.7 1081 1188.3 1081 1097 1081C1005.7 1081 914.3 1081 823 1081C731.7 1081 640.3 1081 548.8 1081C457.3 1081 365.7 1081 274.2 1081C182.7 1081 91.3 1081 45.7 1081L0 1081Z" fill="#2fdbff"></path><path d="M0 972L45.7 973.2C91.3 974.3 182.7 976.7 274.2 977.8C365.7 979 457.3 979 548.8 972.8C640.3 966.7 731.7 954.3 823 948.7C914.3 943 1005.7 944 1097 945.7C1188.3 947.3 1279.7 949.7 1371.2 953.7C1462.7 957.7 1554.3 963.3 1645.8 970.2C1737.3 977 1828.7 985 1874.3 989L1920 993L1920 1081L1874.3 1081C1828.7 1081 1737.3 1081 1645.8 1081C1554.3 1081 1462.7 1081 1371.2 1081C1279.7 1081 1188.3 1081 1097 1081C1005.7 1081 914.3 1081 823 1081C731.7 1081 640.3 1081 548.8 1081C457.3 1081 365.7 1081 274.2 1081C182.7 1081 91.3 1081 45.7 1081L0 1081Z" fill="#00c7ff"></path><path d="M0 1000L45.7 1000.7C91.3 1001.3 182.7 1002.7 274.2 1000.8C365.7 999 457.3 994 548.8 988.3C640.3 982.7 731.7 976.3 823 981.3C914.3 986.3 1005.7 1002.7 1097 1011.5C1188.3 1020.3 1279.7 1021.7 1371.2 1022C1462.7 1022.3 1554.3 1021.7 1645.8 1017.5C1737.3 1013.3 1828.7 1005.7 1874.3 1001.8L1920 998L1920 1081L1874.3 1081C1828.7 1081 1737.3 1081 1645.8 1081C1554.3 1081 1462.7 1081 1371.2 1081C1279.7 1081 1188.3 1081 1097 1081C1005.7 1081 914.3 1081 823 1081C731.7 1081 640.3 1081 548.8 1081C457.3 1081 365.7 1081 274.2 1081C182.7 1081 91.3 1081 45.7 1081L0 1081Z" fill="#00b1ff"></path><path d="M0 1017L45.7 1018.2C91.3 1019.3 182.7 1021.7 274.2 1020.5C365.7 1019.3 457.3 1014.7 548.8 1013C640.3 1011.3 731.7 1012.7 823 1018C914.3 1023.3 1005.7 1032.7 1097 1039.5C1188.3 1046.3 1279.7 1050.7 1371.2 1052.5C1462.7 1054.3 1554.3 1053.7 1645.8 1050C1737.3 1046.3 1828.7 1039.7 1874.3 1036.3L1920 1033L1920 1081L1874.3 1081C1828.7 1081 1737.3 1081 1645.8 1081C1554.3 1081 1462.7 1081 1371.2 1081C1279.7 1081 1188.3 1081 1097 1081C1005.7 1081 914.3 1081 823 1081C731.7 1081 640.3 1081 548.8 1081C457.3 1081 365.7 1081 274.2 1081C182.7 1081 91.3 1081 45.7 1081L0 1081Z" fill="#0099ff"></path></svg>