<svg id="visual" viewBox="0 0 900 600" width="900" height="600" xmlns="http://www.w3.org/2000/svg" xmlns:xlink="http://www.w3.org/1999/xlink" version="1.1"><path d="M0 67L18.8 70C37.7 73 75.3 79 112.8 73C150.3 67 187.7 49 225.2 48C262.7 47 300.3 63 337.8 68C375.3 73 412.7 67 450.2 61C487.7 55 525.3 49 562.8 50C600.3 51 637.7 59 675.2 59C712.7 59 750.3 51 787.8 50C825.3 49 862.7 55 881.3 58L900 61L900 0L881.3 0C862.7 0 825.3 0 787.8 0C750.3 0 712.7 0 675.2 0C637.7 0 600.3 0 562.8 0C525.3 0 487.7 0 450.2 0C412.7 0 375.3 0 337.8 0C300.3 0 262.7 0 225.2 0C187.7 0 150.3 0 112.8 0C75.3 0 37.7 0 18.8 0L0 0Z" fill="#001220"></path><path d="M0 139L18.8 141C37.7 143 75.3 147 112.8 137C150.3 127 187.7 103 225.2 96C262.7 89 300.3 99 337.8 104C375.3 109 412.7 109 450.2 109C487.7 109 525.3 109 562.8 112C600.3 115 637.7 121 675.2 121C712.7 121 750.3 115 787.8 113C825.3 111 862.7 113 881.3 114L900 115L900 59L881.3 56C862.7 53 825.3 47 787.8 48C750.3 49 712.7 57 675.2 57C637.7 57 600.3 49 562.8 48C525.3 47 487.7 53 450.2 59C412.7 65 375.3 71 337.8 66C300.3 61 262.7 45 225.2 46C187.7 47 150.3 65 112.8 71C75.3 77 37.7 71 18.8 68L0 65Z" fill="#062a3c"></path><path d="M0 223L18.8 234C37.7 245 75.3 267 112.8 272C150.3 277 187.7 265 225.2 271C262.7 277 300.3 301 337.8 298C375.3 295 412.7 265 450.2 255C487.7 245 525.3 255 562.8 259C600.3 263 637.7 261 675.2 268C712.7 275 750.3 291 787.8 303C825.3 315 862.7 323 881.3 327L900 331L900 113L881.3 112C862.7 111 825.3 109 787.8 111C750.3 113 712.7 119 675.2 119C637.7 119 600.3 113 562.8 110C525.3 107 487.7 107 450.2 107C412.7 107 375.3 107 337.8 102C300.3 97 262.7 87 225.2 94C187.7 101 150.3 125 112.8 135C75.3 145 37.7 141 18.8 139L0 137Z" fill="#034459"></path><path d="M0 301L18.8 310C37.7 319 75.3 337 112.8 338C150.3 339 187.7 323 225.2 332C262.7 341 300.3 375 337.8 378C375.3 381 412.7 353 450.2 348C487.7 343 525.3 361 562.8 368C600.3 375 637.7 371 675.2 369C712.7 367 750.3 367 787.8 379C825.3 391 862.7 415 881.3 427L900 439L900 329L881.3 325C862.7 321 825.3 313 787.8 301C750.3 289 712.7 273 675.2 266C637.7 259 600.3 261 562.8 257C525.3 253 487.7 243 450.2 253C412.7 263 375.3 293 337.8 296C300.3 299 262.7 275 225.2 269C187.7 263 150.3 275 112.8 270C75.3 265 37.7 243 18.8 232L0 221Z" fill="#006074"></path><path d="M0 427L18.8 432C37.7 437 75.3 447 112.8 442C150.3 437 187.7 417 225.2 422C262.7 427 300.3 457 337.8 454C375.3 451 412.7 415 450.2 417C487.7 419 525.3 459 562.8 472C600.3 485 637.7 471 675.2 459C712.7 447 750.3 437 787.8 441C825.3 445 862.7 463 881.3 472L900 481L900 437L881.3 425C862.7 413 825.3 389 787.8 377C750.3 365 712.7 365 675.2 367C637.7 369 600.3 373 562.8 366C525.3 359 487.7 341 450.2 346C412.7 351 375.3 379 337.8 376C300.3 373 262.7 339 225.2 330C187.7 321 150.3 337 112.8 336C75.3 335 37.7 317 18.8 308L0 299Z" fill="#007e8d"></path><path d="M0 601L18.8 601C37.7 601 75.3 601 112.8 601C150.3 601 187.7 601 225.2 601C262.7 601 300.3 601 337.8 601C375.3 601 412.7 601 450.2 601C487.7 601 525.3 601 562.8 601C600.3 601 637.7 601 675.2 601C712.7 601 750.3 601 787.8 601C825.3 601 862.7 601 881.3 601L900 601L900 479L881.3 470C862.7 461 825.3 443 787.8 439C750.3 435 712.7 445 675.2 457C637.7 469 600.3 483 562.8 470C525.3 457 487.7 417 450.2 415C412.7 413 375.3 449 337.8 452C300.3 455 262.7 425 225.2 420C187.7 415 150.3 435 112.8 440C75.3 445 37.7 435 18.8 430L0 425Z" fill="#009da2"></path></svg>