<svg id="visual" viewBox="0 0 1100 1080" width="1100" height="1080" xmlns="http://www.w3.org/2000/svg" xmlns:xlink="http://www.w3.org/1999/xlink" version="1.1"><rect x="0" y="0" width="1100" height="1080" fill="#001220"></rect><path d="M0 720L26.2 723.2C52.3 726.3 104.7 732.7 157 725.3C209.3 718 261.7 697 314 699.5C366.3 702 418.7 728 471.2 740.2C523.7 752.3 576.3 750.7 628.8 730.7C681.3 710.7 733.7 672.3 786 652.7C838.3 633 890.7 632 943 648.8C995.3 665.7 1047.7 700.3 1073.8 717.7L1100 735L1100 1081L1073.8 1081C1047.7 1081 995.3 1081 943 1081C890.7 1081 838.3 1081 786 1081C733.7 1081 681.3 1081 628.8 1081C576.3 1081 523.7 1081 471.2 1081C418.7 1081 366.3 1081 314 1081C261.7 1081 209.3 1081 157 1081C104.7 1081 52.3 1081 26.2 1081L0 1081Z" fill="#8bffff"></path><path d="M0 811L26.2 801.8C52.3 792.7 104.7 774.3 157 757.7C209.3 741 261.7 726 314 731.2C366.3 736.3 418.7 761.7 471.2 782.2C523.7 802.7 576.3 818.3 628.8 816.3C681.3 814.3 733.7 794.7 786 794C838.3 793.3 890.7 811.7 943 806.2C995.3 800.7 1047.7 771.3 1073.8 756.7L1100 742L1100 1081L1073.8 1081C1047.7 1081 995.3 1081 943 1081C890.7 1081 838.3 1081 786 1081C733.7 1081 681.3 1081 628.8 1081C576.3 1081 523.7 1081 471.2 1081C418.7 1081 366.3 1081 314 1081C261.7 1081 209.3 1081 157 1081C104.7 1081 52.3 1081 26.2 1081L0 1081Z" fill="#56e9ff"></path><path d="M0 822L26.2 831.7C52.3 841.3 104.7 860.7 157 876.8C209.3 893 261.7 906 314 903.8C366.3 901.7 418.7 884.3 471.2 872.5C523.7 860.7 576.3 854.3 628.8 847.8C681.3 841.3 733.7 834.7 786 824.8C838.3 815 890.7 802 943 803C995.3 804 1047.7 819 1073.8 826.5L1100 834L1100 1081L1073.8 1081C1047.7 1081 995.3 1081 943 1081C890.7 1081 838.3 1081 786 1081C733.7 1081 681.3 1081 628.8 1081C576.3 1081 523.7 1081 471.2 1081C418.7 1081 366.3 1081 314 1081C261.7 1081 209.3 1081 157 1081C104.7 1081 52.3 1081 26.2 1081L0 1081Z" fill="#00d1ff"></path><path d="M0 966L26.2 955.7C52.3 945.3 104.7 924.7 157 924.8C209.3 925 261.7 946 314 947.7C366.3 949.3 418.7 931.7 471.2 926C523.7 920.3 576.3 926.7 628.8 936.3C681.3 946 733.7 959 786 954.2C838.3 949.3 890.7 926.7 943 923.5C995.3 920.3 1047.7 936.7 1073.8 944.8L1100 953L1100 1081L1073.8 1081C1047.7 1081 995.3 1081 943 1081C890.7 1081 838.3 1081 786 1081C733.7 1081 681.3 1081 628.8 1081C576.3 1081 523.7 1081 471.2 1081C418.7 1081 366.3 1081 314 1081C261.7 1081 209.3 1081 157 1081C104.7 1081 52.3 1081 26.2 1081L0 1081Z" fill="#00b7ff"></path><path d="M0 976L26.2 983.3C52.3 990.7 104.7 1005.3 157 1001.3C209.3 997.3 261.7 974.7 314 972.2C366.3 969.7 418.7 987.3 471.2 998.7C523.7 1010 576.3 1015 628.8 1008.8C681.3 1002.7 733.7 985.3 786 976.2C838.3 967 890.7 966 943 968.7C995.3 971.3 1047.7 977.7 1073.8 980.8L1100 984L1100 1081L1073.8 1081C1047.7 1081 995.3 1081 943 1081C890.7 1081 838.3 1081 786 1081C733.7 1081 681.3 1081 628.8 1081C576.3 1081 523.7 1081 471.2 1081C418.7 1081 366.3 1081 314 1081C261.7 1081 209.3 1081 157 1081C104.7 1081 52.3 1081 26.2 1081L0 1081Z" fill="#0099ff"></path></svg>