<svg xmlns="http://www.w3.org/2000/svg" viewBox="0 0 1300 1201"><defs><style>.cls-1{fill:#4bffff;}.cls-2{fill:#2ebed2;}.cls-3{fill:#2d809b;}.cls-4{fill:#26485e;}.cls-5{fill:#151c27;}.cls-6,.cls-7{fill:#fff;}.cls-7,.cls-8{stroke:#fff;stroke-linecap:round;stroke-linejoin:round;stroke-width:20px;}.cls-8{fill:none;}</style></defs><g id="visual"><path class="cls-1" d="M0,229l36.2,18c36.1,18,108.5,54,180.6,46S361,233,433.2,225,577.7,253,650,257s144.7-24,216.8-46,144.2-38,216.4-42,144.5,4,180.6,8l36.2,4V0H0Z"/><path class="cls-2" d="M0,493l36.2,24c36.1,24,108.5,72,180.6,84S361,589,433.2,591,577.7,621,650,601s144.7-88,216.8-120,144.2-28,216.4,6,144.5,98,180.6,130l36.2,32V179l-36.2-4c-36.1-4-108.5-12-180.6-8S939,187,866.8,209,722.3,259,650,255s-144.7-40-216.8-32S289,283,216.8,291,72.3,263,36.2,245L0,227Z"/><path class="cls-3" d="M0,697l36.2,6c36.1,6,108.5,18,180.6,28S361,749,433.2,755,577.7,765,650,739s144.7-82,216.8-108,144.2-22,216.4,6,144.5,80,180.6,106l36.2,26V647l-36.2-32c-36.1-32-108.5-96-180.6-130S939,447,866.8,479,722.3,579,650,599s-144.7-8-216.8-10S289,611,216.8,599,72.3,539,36.2,515L0,491Z"/><path class="cls-4" d="M0,805l36.2,6c36.1,6,108.5,18,180.6,42S361,913,433.2,939,577.7,981,650,951,794.7,845,866.8,817s144.2-8,216.4,14,144.5,46,180.6,58l36.2,12V767l-36.2-26c-36.1-26-108.5-78-180.6-106S939,603,866.8,629,722.3,711,650,737s-144.7,22-216.8,16S289,739,216.8,729,72.3,707,36.2,701L0,695Z"/><path class="cls-5" d="M0,1201H1300V899l-36.2-12c-36.1-12-108.5-36-180.6-58S939,787,866.8,815,722.3,919,650,949s-144.7,14-216.8-12S289,875,216.8,851,72.3,815,36.2,809L0,803Z"/><text/><path class="cls-6" d="M238.15,727.92q-9.1,0-15.15-4.74a25,25,0,0,1-8.48-12.81l13.14-3.15a9.67,9.67,0,0,0,3.54,5.8,9.87,9.87,0,0,0,6.46,2.43,11.52,11.52,0,0,0,4.91-1.24,8,8,0,0,0,3.86-4,12.28,12.28,0,0,0,.92-4.22c.09-1.64.13-3.54.13-5.72V646.77H261v53.49q0,3.71,0,6.49a26.49,26.49,0,0,1-.56,5.25,16.87,16.87,0,0,1-2.07,5,20.23,20.23,0,0,1-8.5,8.25A25.67,25.67,0,0,1,238.15,727.92Z"/><path class="cls-6" d="M303.85,727.92a29.61,29.61,0,0,1-15.62-4,27.29,27.29,0,0,1-10.35-11.12,35,35,0,0,1-3.68-16.31A34.5,34.5,0,0,1,278,680a27.68,27.68,0,0,1,10.43-11,32.3,32.3,0,0,1,31.14.06,27.63,27.63,0,0,1,10.38,11.12,37.79,37.79,0,0,1,0,32.68,27.59,27.59,0,0,1-10.41,11.1A29.78,29.78,0,0,1,303.85,727.92Zm0-12.47q7.95,0,11.82-5.3t3.86-13.69q0-8.67-3.92-13.84t-11.76-5.16a15.09,15.09,0,0,0-8.81,2.4,14.11,14.11,0,0,0-5.1,6.68,27.28,27.28,0,0,0-1.66,9.92q0,8.65,4,13.83T303.85,715.45Z"/><path class="cls-6" d="M346.86,657.59v-12.2h13.3v12.2Zm0,68.68V666.64h13.3v59.63Z"/><path class="cls-6" d="M376.61,726.27V666.64h11.87v18.5h1.61v41.13Zm41.36,0V697.56a55.46,55.46,0,0,0-.39-6.24,22.77,22.77,0,0,0-1.79-6.6,12.8,12.8,0,0,0-4.2-5.21,12.44,12.44,0,0,0-7.54-2,15.86,15.86,0,0,0-5,.83,11.4,11.4,0,0,0-4.5,2.84,14.4,14.4,0,0,0-3.23,5.53,27.8,27.8,0,0,0-1.21,9l-7.9-3.37a31.58,31.58,0,0,1,2.95-13.8,23.47,23.47,0,0,1,8.7-9.86q5.75-3.68,14.13-3.67a23.88,23.88,0,0,1,10.93,2.21,19.21,19.21,0,0,1,6.85,5.63,24.53,24.53,0,0,1,3.75,7.29,37.32,37.32,0,0,1,1.58,7.31q.36,3.45.36,5.61v33.29Z"/><path class="cls-6" d="M497.3,727.92a39.1,39.1,0,0,1-15.71-3,29.36,29.36,0,0,1-11.48-8.7,28,28,0,0,1-5.71-13.44l13.8-2.1a18.22,18.22,0,0,0,7.26,10.93,21.43,21.43,0,0,0,12.67,3.87,23.94,23.94,0,0,0,8-1.33,14.77,14.77,0,0,0,6.1-3.86,8.85,8.85,0,0,0,2.35-6.24A8.29,8.29,0,0,0,514,701a7.59,7.59,0,0,0-1.63-2.51,11.44,11.44,0,0,0-2.76-2,21,21,0,0,0-3.89-1.58l-20.54-6.07a49.84,49.84,0,0,1-5.71-2.07,22.58,22.58,0,0,1-5.8-3.59,17.65,17.65,0,0,1-4.47-5.85,20,20,0,0,1-1.74-8.81,20.93,20.93,0,0,1,3.89-12.89,23.4,23.4,0,0,1,10.49-7.81,38.92,38.92,0,0,1,14.66-2.54A37.58,37.58,0,0,1,511.1,648a27.9,27.9,0,0,1,10.71,7.92,30.52,30.52,0,0,1,6.08,12.53L513.59,671a15.82,15.82,0,0,0-3.4-7.15,16.35,16.35,0,0,0-6.13-4.5,21,21,0,0,0-7.7-1.66,20.55,20.55,0,0,0-7.37,1.19,13.25,13.25,0,0,0-5.46,3.56,7.88,7.88,0,0,0-2.07,5.41,6.64,6.64,0,0,0,1.76,4.78,12.51,12.51,0,0,0,4.39,2.92,42.83,42.83,0,0,0,5.33,1.8l14.24,4q2.93.78,6.57,2.1a29.72,29.72,0,0,1,7,3.7,18.65,18.65,0,0,1,5.55,6.24,19.72,19.72,0,0,1,2.18,9.82A22.14,22.14,0,0,1,525.93,714a23.14,23.14,0,0,1-6.93,7.76,31.62,31.62,0,0,1-10,4.64A43.87,43.87,0,0,1,497.3,727.92Z"/><path class="cls-6" d="M540.36,726.27V666.64h11.87v18.5h1.6v41.13Zm41.35,0V697.56a57.74,57.74,0,0,0-.38-6.24,22.48,22.48,0,0,0-1.8-6.6,12.78,12.78,0,0,0-4.19-5.21,12.44,12.44,0,0,0-7.54-2,15.82,15.82,0,0,0-5,.83,11.4,11.4,0,0,0-4.5,2.84,14.28,14.28,0,0,0-3.23,5.53,27.77,27.77,0,0,0-1.22,9l-7.89-3.37a31.58,31.58,0,0,1,2.95-13.8,23.47,23.47,0,0,1,8.7-9.86q5.74-3.68,14.13-3.67a23.88,23.88,0,0,1,10.93,2.21,19.38,19.38,0,0,1,6.85,5.63,24.53,24.53,0,0,1,3.75,7.29,37.32,37.32,0,0,1,1.58,7.31c.23,2.3.35,4.17.35,5.61v33.29Z"/><path class="cls-6" d="M634.93,727.92a29.61,29.61,0,0,1-15.62-4A27.43,27.43,0,0,1,609,712.77a35,35,0,0,1-3.67-16.31A34.61,34.61,0,0,1,609,680a27.63,27.63,0,0,1,10.44-11,32.28,32.28,0,0,1,31.13.06A27.5,27.5,0,0,1,661,680.14a37.79,37.79,0,0,1,0,32.68,27.63,27.63,0,0,1-10.4,11.1A29.82,29.82,0,0,1,634.93,727.92Zm0-12.47q8,0,11.82-5.3t3.86-13.69q0-8.67-3.92-13.84t-11.76-5.16a15.06,15.06,0,0,0-8.8,2.4,14.19,14.19,0,0,0-5.11,6.68,27.5,27.5,0,0,0-1.65,9.92q0,8.65,3.94,13.83T634.93,715.45Z"/><path class="cls-6" d="M687.33,726.27l-18.22-59.74,13,.11,11.65,38.26,11.81-38.26h11.21l11.76,38.26,11.7-38.26h13l-18.22,59.63H724.71l-13.53-41-13.47,41Z"/><path class="cls-6" d="M778.7,677.08V666.64h41.57v10.44Zm41.57,49.19a55.3,55.3,0,0,1-11.56,1,26.75,26.75,0,0,1-10.14-2.09,13.89,13.89,0,0,1-6.79-6.22,17.7,17.7,0,0,1-2.15-7.89c-.07-2.69-.11-5.72-.11-9.11V650.08h13.25v51.07q0,3.58.08,6.29a9,9,0,0,0,1.13,4.42,7.73,7.73,0,0,0,6.35,3.7,42.64,42.64,0,0,0,9.94-.44Z"/><path class="cls-6" d="M856.43,727.92a29.61,29.61,0,0,1-15.62-4,27.36,27.36,0,0,1-10.35-11.12,35,35,0,0,1-3.67-16.31A34.61,34.61,0,0,1,830.54,680,27.68,27.68,0,0,1,841,669a32.3,32.3,0,0,1,31.14.06,27.5,27.5,0,0,1,10.38,11.12,37.79,37.79,0,0,1,0,32.68,27.63,27.63,0,0,1-10.4,11.1A29.82,29.82,0,0,1,856.43,727.92Zm0-12.47q8,0,11.82-5.3t3.86-13.69q0-8.67-3.92-13.84t-11.76-5.16a15.06,15.06,0,0,0-8.8,2.4,14.13,14.13,0,0,0-5.11,6.68,27.5,27.5,0,0,0-1.66,9.92q0,8.65,3.95,13.83T856.43,715.45Z"/><path class="cls-6" d="M922.24,727.92a25,25,0,0,1-14.35-4.14,27.4,27.4,0,0,1-9.5-11.26,40,40,0,0,1,0-32.21,27.1,27.1,0,0,1,9.63-11.21A26.1,26.1,0,0,1,922.74,665q8.5,0,14.27,4.11a25.55,25.55,0,0,1,8.75,11.23,44.87,44.87,0,0,1,0,32.16,25.31,25.31,0,0,1-8.89,11.29Q931,727.92,922.24,727.92Zm2-11.92a13,13,0,0,0,13.44-9.33,35.19,35.19,0,0,0,0-20.46,14.25,14.25,0,0,0-4.72-6.84,13.23,13.23,0,0,0-8.28-2.46,14.34,14.34,0,0,0-8.84,2.62,15.29,15.29,0,0,0-5.13,7.07,27.91,27.91,0,0,0-1.66,9.86,28.81,28.81,0,0,0,1.63,9.91,15.26,15.26,0,0,0,5,7A13.61,13.61,0,0,0,924.29,716Zm15,10.27V684.42h-1.66V646.77H951v79.5Z"/><path class="cls-6" d="M983.14,727.92a22.5,22.5,0,0,1-10.93-2.45,16.77,16.77,0,0,1-6.77-6.55,18,18,0,0,1-2.29-9,20,20,0,0,1,1.44-7.76,15.46,15.46,0,0,1,4.41-6,23.6,23.6,0,0,1,7.73-4.12,72.35,72.35,0,0,1,8.42-2.09q4.83-.94,10.49-1.74t11.84-1.74l-4.74,2.7q0-6.18-2.76-9.11t-9.5-2.92a17.18,17.18,0,0,0-7.78,1.87,10.42,10.42,0,0,0-5.25,6.46l-12.15-3.81a22.54,22.54,0,0,1,8.42-12.14q6.21-4.59,16.76-4.58a35.25,35.25,0,0,1,14,2.59,17.34,17.34,0,0,1,9,8.5,18.3,18.3,0,0,1,1.93,6.43q.33,3.3.33,7.15v36.61h-11.65V713.35l1.93,2.1a26.64,26.64,0,0,1-9.41,9.47Q991.2,727.92,983.14,727.92Zm2.65-10.6a17.14,17.14,0,0,0,7.73-1.6,15.25,15.25,0,0,0,5.1-3.92,13.71,13.71,0,0,0,2.57-4.36,17,17,0,0,0,1.19-5.82c.09-2.19.14-4,.14-5.33l4.08,1.21q-6,.94-10.32,1.66t-7.4,1.35a54.46,54.46,0,0,0-5.47,1.41,17.25,17.25,0,0,0-3.92,1.93,8.29,8.29,0,0,0-2.45,2.54,6.38,6.38,0,0,0-.86,3.37,7,7,0,0,0,1.1,3.89,7.57,7.57,0,0,0,3.23,2.68A12.5,12.5,0,0,0,985.79,717.32Z"/><path class="cls-6" d="M1034.59,752.77l11.48-31.53.22,9.28-26-63.88h13.86l18.44,47.26h-3.53L1067,666.64h13.3l-33.23,86.13Z"/><path class="cls-6" d="M1081.91,726.27V712.63h13.63v13.64Z"/></g><g id="Snow_Logo" data-name="Snow Logo"><path class="cls-7" d="M654.89,290.31V406.23"/><polygon class="cls-7" points="683.69 277.63 654.89 304.77 626.09 277.63 654.89 250.5 683.69 277.63"/><polyline class="cls-8" points="683.69 325.56 654.89 352.7 626.09 325.56"/><polyline class="cls-8" points="683.69 379.1 654.89 406.23 626.09 379.1"/><path class="cls-7" d="M554.5,348.27l100.39,58"/><polygon class="cls-7" points="557.93 316.99 567.03 355.5 529.13 366.87 520.02 328.37 557.93 316.99"/><polyline class="cls-8" points="599.43 340.96 608.53 379.46 570.64 390.84"/><polyline class="cls-8" points="645.79 367.72 654.89 406.23 616.99 417.6"/><path class="cls-7" d="M554.5,464.19l100.39-58"/><polygon class="cls-7" points="529.13 445.59 567.03 456.96 557.93 495.47 520.02 484.1 529.13 445.59"/><polyline class="cls-8" points="570.64 421.62 608.53 433 599.43 471.5"/><polyline class="cls-8" points="616.99 394.86 654.89 406.23 645.79 444.74"/><path class="cls-7" d="M654.89,522.15V406.23"/><polygon class="cls-7" points="626.09 534.83 654.89 507.69 683.69 534.83 654.89 561.96 626.09 534.83"/><polyline class="cls-8" points="626.09 486.89 654.89 459.76 683.69 486.89"/><polyline class="cls-8" points="626.09 433.37 654.89 406.23 683.69 433.37"/><path class="cls-7" d="M755.28,464.19l-100.39-58"/><polygon class="cls-7" points="751.86 495.47 742.76 456.96 780.66 445.59 789.76 484.1 751.86 495.47"/><polyline class="cls-8" points="710.35 471.5 701.25 433 739.15 421.62"/><polyline class="cls-8" points="663.99 444.74 654.89 406.23 692.79 394.86"/><path class="cls-7" d="M755.28,348.27l-100.39,58"/><polygon class="cls-7" points="780.66 366.87 742.76 355.5 751.86 316.99 789.76 328.37 780.66 366.87"/><polyline class="cls-8" points="739.15 390.84 701.25 379.46 710.35 340.96"/><polyline class="cls-8" points="692.79 417.6 654.89 406.23 663.99 367.72"/></g></svg>