<svg xmlns="http://www.w3.org/2000/svg" viewBox="0 0 1300 1201"><defs><style>.cls-1{fill:#4bffff;}.cls-2{fill:#2ebed2;}.cls-3{fill:#2d809b;}.cls-4{fill:#26485e;}.cls-5{fill:#111822;}.cls-6{font-size:110.42px;font-family:Manrope-Bold, Manrope;font-weight:700;}.cls-13,.cls-6{fill:#fff;}.cls-7{letter-spacing:-0.01em;}.cls-8{letter-spacing:-0.02em;}.cls-9{letter-spacing:-0.03em;}.cls-10{letter-spacing:0em;}.cls-11{letter-spacing:-0.03em;}.cls-12{letter-spacing:-0.08em;}.cls-13,.cls-14{stroke:#fff;stroke-linecap:round;stroke-linejoin:round;stroke-width:20px;}.cls-14{fill:none;}</style></defs><g id="visual"><path class="cls-1" d="M0,229l36.2,18c36.1,18,108.5,54,180.6,46S361,233,433.2,225,577.7,253,650,257s144.7-24,216.8-46,144.2-38,216.4-42,144.5,4,180.6,8l36.2,4V0H0Z"/><path class="cls-2" d="M0,493l36.2,24c36.1,24,108.5,72,180.6,84S361,589,433.2,591,577.7,621,650,601s144.7-88,216.8-120,144.2-28,216.4,6,144.5,98,180.6,130l36.2,32V179l-36.2-4c-36.1-4-108.5-12-180.6-8S939,187,866.8,209,722.3,259,650,255s-144.7-40-216.8-32S289,283,216.8,291,72.3,263,36.2,245L0,227Z"/><path class="cls-3" d="M0,697l36.2,6c36.1,6,108.5,18,180.6,28S361,749,433.2,755,577.7,765,650,739s144.7-82,216.8-108,144.2-22,216.4,6,144.5,80,180.6,106l36.2,26V647l-36.2-32c-36.1-32-108.5-96-180.6-130S939,447,866.8,479,722.3,579,650,599s-144.7-8-216.8-10S289,611,216.8,599,72.3,539,36.2,515L0,491Z"/><path class="cls-4" d="M0,805l36.2,6c36.1,6,108.5,18,180.6,42S361,913,433.2,939,577.7,981,650,951,794.7,845,866.8,817s144.2-8,216.4,14,144.5,46,180.6,58l36.2,12V767l-36.2-26c-36.1-26-108.5-78-180.6-106S939,603,866.8,629,722.3,711,650,737s-144.7,22-216.8,16S289,739,216.8,729,72.3,707,36.2,701L0,695Z"/><path class="cls-5" d="M0,1201H1300V899l-36.2-12c-36.1-12-108.5-36-180.6-58S939,787,866.8,815,722.3,919,650,949s-144.7,14-216.8-12S289,875,216.8,851,72.3,815,36.2,809L0,803Z"/><text/><text class="cls-6" transform="translate(214.52 726.27)">Join S<tspan class="cls-7" x="318.22" y="0">n</tspan><tspan class="cls-8" x="386.35" y="0">o</tspan><tspan x="452.38" y="0">w </tspan><tspan class="cls-9" x="563.07" y="0">t</tspan><tspan class="cls-10" x="607.84" y="0">od</tspan><tspan class="cls-11" x="744.21" y="0">a</tspan><tspan class="cls-12" x="804.5" y="0">y</tspan><tspan x="857.44" y="0">.</tspan></text></g><g id="Snow_Logo" data-name="Snow Logo"><path class="cls-13" d="M654.89,290.31V406.23"/><polygon class="cls-13" points="683.69 277.63 654.89 304.77 626.09 277.63 654.89 250.5 683.69 277.63"/><polyline class="cls-14" points="683.69 325.56 654.89 352.7 626.09 325.56"/><polyline class="cls-14" points="683.69 379.1 654.89 406.23 626.09 379.1"/><path class="cls-13" d="M554.5,348.27l100.39,58"/><polygon class="cls-13" points="557.93 316.99 567.03 355.5 529.13 366.87 520.02 328.37 557.93 316.99"/><polyline class="cls-14" points="599.43 340.96 608.53 379.46 570.64 390.84"/><polyline class="cls-14" points="645.79 367.72 654.89 406.23 616.99 417.6"/><path class="cls-13" d="M554.5,464.19l100.39-58"/><polygon class="cls-13" points="529.13 445.59 567.03 456.96 557.93 495.47 520.02 484.1 529.13 445.59"/><polyline class="cls-14" points="570.64 421.62 608.53 433 599.43 471.5"/><polyline class="cls-14" points="616.99 394.86 654.89 406.23 645.79 444.74"/><path class="cls-13" d="M654.89,522.15V406.23"/><polygon class="cls-13" points="626.09 534.83 654.89 507.69 683.69 534.83 654.89 561.96 626.09 534.83"/><polyline class="cls-14" points="626.09 486.89 654.89 459.76 683.69 486.89"/><polyline class="cls-14" points="626.09 433.37 654.89 406.23 683.69 433.37"/><path class="cls-13" d="M755.28,464.19l-100.39-58"/><polygon class="cls-13" points="751.86 495.47 742.76 456.96 780.66 445.59 789.76 484.1 751.86 495.47"/><polyline class="cls-14" points="710.35 471.5 701.25 433 739.15 421.62"/><polyline class="cls-14" points="663.99 444.74 654.89 406.23 692.79 394.86"/><path class="cls-13" d="M755.28,348.27l-100.39,58"/><polygon class="cls-13" points="780.66 366.87 742.76 355.5 751.86 316.99 789.76 328.37 780.66 366.87"/><polyline class="cls-14" points="739.15 390.84 701.25 379.46 710.35 340.96"/><polyline class="cls-14" points="692.79 417.6 654.89 406.23 663.99 367.72"/></g></svg>